<?xml version="1.0" encoding="UTF-8"?>
<svg width="800px" height="600px" viewBox="0 0 800 600" version="1.1" xmlns="http://www.w3.org/2000/svg" xmlns:xlink="http://www.w3.org/1999/xlink">
    <defs>
        <linearGradient x1="0%" y1="0%" x2="100%" y2="100%" id="analyticsGradient1">
            <stop stop-color="#4F46E5" offset="0%"></stop>
            <stop stop-color="#8B5CF6" offset="100%"></stop>
        </linearGradient>
        <linearGradient x1="0%" y1="0%" x2="100%" y2="100%" id="analyticsGradient2">
            <stop stop-color="#10B981" offset="0%"></stop>
            <stop stop-color="#3B82F6" offset="100%"></stop>
        </linearGradient>
        <linearGradient x1="0%" y1="0%" x2="100%" y2="100%" id="analyticsGradient3">
            <stop stop-color="#F59E0B" offset="0%"></stop>
            <stop stop-color="#EF4444" offset="100%"></stop>
        </linearGradient>
    </defs>
    <g stroke="none" stroke-width="1" fill="none" fill-rule="evenodd">
        <!-- Background -->
        <rect fill="#FFFFFF" x="0" y="0" width="800" height="600"></rect>
        
        <!-- Dashboard Header -->
        <rect fill="#F9FAFB" x="0" y="0" width="800" height="60"></rect>
        <rect fill="#4F46E5" x="20" y="20" width="20" height="20" rx="4"></rect>
        <rect fill="#E5E7EB" x="50" y="20" width="100" height="20" rx="4"></rect>
        <rect fill="#E5E7EB" x="650" y="20" width="60" height="20" rx="10"></rect>
        <rect fill="#E5E7EB" x="720" y="20" width="60" height="20" rx="10"></rect>
        
        <!-- Sidebar -->
        <rect fill="#F9FAFB" x="0" y="60" width="200" height="540"></rect>
        <rect fill="#E5E7EB" x="20" y="100" width="160" height="20" rx="4"></rect>
        <rect fill="#E5E7EB" x="20" y="140" width="160" height="20" rx="4"></rect>
        <rect fill="#E5E7EB" x="20" y="180" width="160" height="20" rx="4"></rect>
        <rect fill="#E5E7EB" x="20" y="220" width="160" height="20" rx="4"></rect>
        <rect fill="#E5E7EB" x="20" y="260" width="160" height="20" rx="4"></rect>
        
        <!-- Main Content -->
        <rect fill="#FFFFFF" x="200" y="60" width="600" height="540"></rect>
        
        <!-- Page Title -->
        <rect fill="#111827" x="240" y="100" width="200" height="30" rx="4"></rect>
        <rect fill="#E5E7EB" x="240" y="140" width="300" height="20" rx="4"></rect>
        
        <!-- Portfolio Summary Card -->
        <rect fill="#F9FAFB" x="240" y="180" width="520" height="120" rx="8"></rect>
        <rect fill="#111827" x="260" y="200" width="120" height="20" rx="4"></rect>
        <rect fill="#4F46E5" x="260" y="230" width="180" height="40" rx="4"></rect>
        <rect fill="#E5E7EB" x="460" y="200" width="80" height="20" rx="4"></rect>
        <rect fill="#10B981" x="460" y="230" width="120" height="40" rx="4"></rect>
        <rect fill="#E5E7EB" x="600" y="200" width="80" height="20" rx="4"></rect>
        <rect fill="#F59E0B" x="600" y="230" width="120" height="40" rx="4"></rect>
        
        <!-- Chart Section -->
        <rect fill="#F9FAFB" x="240" y="320" width="320" height="260" rx="8"></rect>
        <rect fill="#111827" x="260" y="340" width="120" height="20" rx="4"></rect>
        
        <!-- Chart -->
        <path d="M260,520 L560,520" stroke="#E5E7EB" stroke-width="2"></path>
        <path d="M260,380 L260,520" stroke="#E5E7EB" stroke-width="2"></path>
        
        <!-- Chart Data -->
        <path d="M260,480 C280,470 300,490 320,460 C340,430 360,450 380,420 C400,390 420,410 440,380 C460,350 480,370 500,340 C520,310 540,330 560,300" stroke="url(#analyticsGradient1)" stroke-width="3" fill="none"></path>
        
        <circle fill="#4F46E5" cx="260" cy="480" r="5"></circle>
        <circle fill="#4F46E5" cx="320" cy="460" r="5"></circle>
        <circle fill="#4F46E5" cx="380" cy="420" r="5"></circle>
        <circle fill="#4F46E5" cx="440" cy="380" r="5"></circle>
        <circle fill="#4F46E5" cx="500" cy="340" r="5"></circle>
        <circle fill="#4F46E5" cx="560" cy="300" r="5"></circle>
        
        <!-- Assets Section -->
        <rect fill="#F9FAFB" x="580" y="320" width="180" height="260" rx="8"></rect>
        <rect fill="#111827" x="600" y="340" width="120" height="20" rx="4"></rect>
        
        <!-- Asset Items -->
        <rect fill="#FFFFFF" x="600" y="380" width="140" height="40" rx="4"></rect>
        <circle fill="#F59E0B" cx="620" cy="400" r="10"></circle>
        <rect fill="#E5E7EB" x="640" y="390" width="60" height="10" rx="2"></rect>
        <rect fill="#E5E7EB" x="640" y="405" width="40" height="10" rx="2"></rect>
        
        <rect fill="#FFFFFF" x="600" y="430" width="140" height="40" rx="4"></rect>
        <circle fill="#4F46E5" cx="620" cy="450" r="10"></circle>
        <rect fill="#E5E7EB" x="640" y="440" width="60" height="10" rx="2"></rect>
        <rect fill="#E5E7EB" x="640" y="455" width="40" height="10" rx="2"></rect>
        
        <rect fill="#FFFFFF" x="600" y="480" width="140" height="40" rx="4"></rect>
        <circle fill="#10B981" cx="620" cy="500" r="10"></circle>
        <rect fill="#E5E7EB" x="640" y="490" width="60" height="10" rx="2"></rect>
        <rect fill="#E5E7EB" x="640" y="505" width="40" height="10" rx="2"></rect>
        
        <!-- Donut Chart -->
        <path d="M620,450 L620,400 A50,50 0 0,1 663,435 Z" fill="#F59E0B"></path>
        <path d="M620,450 L663,435 A50,50 0 0,1 635,493 Z" fill="#4F46E5"></path>
        <path d="M620,450 L635,493 A50,50 0 0,1 577,465 Z" fill="#10B981"></path>
        <path d="M620,450 L577,465 A50,50 0 0,1 620,400 Z" fill="#EF4444"></path>
    </g>
</svg>
