<?xml version="1.0" encoding="UTF-8"?>
<svg width="800px" height="600px" viewBox="0 0 800 600" version="1.1" xmlns="http://www.w3.org/2000/svg" xmlns:xlink="http://www.w3.org/1999/xlink">
    <defs>
        <linearGradient x1="0%" y1="0%" x2="100%" y2="100%" id="cryptoGradient1">
            <stop stop-color="#4F46E5" offset="0%"></stop>
            <stop stop-color="#8B5CF6" offset="100%"></stop>
        </linearGradient>
        <linearGradient x1="0%" y1="0%" x2="100%" y2="100%" id="cryptoGradient2">
            <stop stop-color="#3B82F6" offset="0%"></stop>
            <stop stop-color="#8B5CF6" offset="100%"></stop>
        </linearGradient>
        <linearGradient x1="0%" y1="0%" x2="100%" y2="100%" id="cryptoGradient3">
            <stop stop-color="#10B981" offset="0%"></stop>
            <stop stop-color="#3B82F6" offset="100%"></stop>
        </linearGradient>
    </defs>
    <g stroke="none" stroke-width="1" fill="none" fill-rule="evenodd">
        <!-- Background Elements -->
        <rect fill="#F9FAFB" x="0" y="0" width="800" height="600"></rect>
        
        <!-- Grid Lines -->
        <g stroke="#E5E7EB" stroke-width="1" opacity="0.5">
            <line x1="0" y1="100" x2="800" y2="100"></line>
            <line x1="0" y1="200" x2="800" y2="200"></line>
            <line x1="0" y1="300" x2="800" y2="300"></line>
            <line x1="0" y1="400" x2="800" y2="400"></line>
            <line x1="0" y1="500" x2="800" y2="500"></line>
            
            <line x1="100" y1="0" x2="100" y2="600"></line>
            <line x1="200" y1="0" x2="200" y2="600"></line>
            <line x1="300" y1="0" x2="300" y2="600"></line>
            <line x1="400" y1="0" x2="400" y2="600"></line>
            <line x1="500" y1="0" x2="500" y2="600"></line>
            <line x1="600" y1="0" x2="600" y2="600"></line>
            <line x1="700" y1="0" x2="700" y2="600"></line>
        </g>
        
        <!-- Chart Lines -->
        <path d="M100,450 C150,400 200,420 250,380 C300,340 350,300 400,320 C450,340 500,280 550,240 C600,200 650,180 700,150" stroke="url(#cryptoGradient1)" stroke-width="4" stroke-linecap="round" fill="none"></path>
        
        <path d="M100,500 C150,480 200,460 250,470 C300,480 350,450 400,430 C450,410 500,390 550,370 C600,350 650,330 700,300" stroke="url(#cryptoGradient2)" stroke-width="4" stroke-linecap="round" fill="none"></path>
        
        <path d="M100,400 C150,420 200,380 250,400 C300,420 350,380 400,350 C450,320 500,350 550,320 C600,290 650,270 700,250" stroke="url(#cryptoGradient3)" stroke-width="4" stroke-linecap="round" fill="none"></path>
        
        <!-- Crypto Icons -->
        <circle fill="#F7931A" cx="250" cy="380" r="20"></circle>
        <g transform="translate(240, 370)">
            <path d="M10,0 L10,20 M5,5 L15,5 M5,15 L15,15" stroke="white" stroke-width="2" stroke-linecap="round"></path>
        </g>
        
        <circle fill="#627EEA" cx="400" cy="320" r="20"></circle>
        <g transform="translate(390, 310)">
            <path d="M10,0 L10,20 M5,10 L15,10" stroke="white" stroke-width="2" stroke-linecap="round"></path>
        </g>
        
        <circle fill="#8A2BE2" cx="550" cy="240" r="20"></circle>
        <g transform="translate(540, 230)">
            <path d="M5,5 L15,15 M5,15 L15,5" stroke="white" stroke-width="2" stroke-linecap="round"></path>
        </g>
        
        <!-- Data Points -->
        <circle fill="#4F46E5" cx="150" cy="400" r="6"></circle>
        <circle fill="#4F46E5" cx="200" cy="420" r="6"></circle>
        <circle fill="#4F46E5" cx="250" cy="380" r="6"></circle>
        <circle fill="#4F46E5" cx="300" cy="340" r="6"></circle>
        <circle fill="#4F46E5" cx="350" cy="300" r="6"></circle>
        <circle fill="#4F46E5" cx="400" cy="320" r="6"></circle>
        <circle fill="#4F46E5" cx="450" cy="340" r="6"></circle>
        <circle fill="#4F46E5" cx="500" cy="280" r="6"></circle>
        <circle fill="#4F46E5" cx="550" cy="240" r="6"></circle>
        <circle fill="#4F46E5" cx="600" cy="200" r="6"></circle>
        <circle fill="#4F46E5" cx="650" cy="180" r="6"></circle>
        <circle fill="#4F46E5" cx="700" cy="150" r="6"></circle>
        
        <!-- Floating Elements -->
        <g transform="translate(150, 150)">
            <rect fill="white" x="0" y="0" width="120" height="80" rx="8"></rect>
            <rect fill="#F3F4F6" x="10" y="10" width="100" height="10" rx="2"></rect>
            <rect fill="#F3F4F6" x="10" y="30" width="80" height="10" rx="2"></rect>
            <rect fill="#4F46E5" x="10" y="50" width="60" height="20" rx="4"></rect>
        </g>
        
        <g transform="translate(500, 100)">
            <rect fill="white" x="0" y="0" width="150" height="100" rx="8"></rect>
            <rect fill="#F3F4F6" x="10" y="10" width="130" height="15" rx="2"></rect>
            <rect fill="#F3F4F6" x="10" y="35" width="100" height="15" rx="2"></rect>
            <rect fill="#F3F4F6" x="10" y="60" width="70" height="15" rx="2"></rect>
            <rect fill="#10B981" x="100" y="60" width="40" height="30" rx="4"></rect>
        </g>
        
        <!-- Decorative Elements -->
        <circle fill="#4F46E5" opacity="0.1" cx="100" cy="100" r="50"></circle>
        <circle fill="#8B5CF6" opacity="0.1" cx="700" cy="500" r="70"></circle>
        <circle fill="#3B82F6" opacity="0.1" cx="400" cy="200" r="60"></circle>
    </g>
</svg>
