<?xml version="1.0" encoding="UTF-8"?>
<svg width="170px" height="170px" viewBox="0 0 170 170" version="1.1" xmlns="http://www.w3.org/2000/svg" xmlns:xlink="http://www.w3.org/1999/xlink">
    <g stroke="none" stroke-width="1" fill="none" fill-rule="evenodd">
        <g transform="translate(0.000000, 0.000000)" fill-rule="nonzero">
            <circle fill="#F7931A" cx="85" cy="85" r="85"></circle>
            <path d="M120.75,76.04 C118.02,64.6 107.29,61.57 94.37,64.6 L90.16,51.13 L82.13,53.37 L86.24,66.44 C84.11,67.08 81.89,67.73 79.7,68.37 L75.56,55.21 L67.54,57.45 L71.75,70.92 C70,71.43 68.27,71.93 66.59,72.4 L66.57,72.34 L55.64,75.4 L58.02,84.08 C58.02,84.08 64.02,82.35 63.94,82.44 C67.24,81.6 68.67,83.76 69.08,85.51 L73.89,100.93 C74.08,100.88 74.32,100.82 74.59,100.73 C74.38,100.78 74.16,100.84 73.92,100.89 L80.54,122.54 C80.54,123.7 80.05,125.54 77.7,126.08 C77.81,126.14 71.78,127.78 71.78,127.78 L72.97,137.29 L83.32,134.4 C85.32,133.83 87.27,133.29 89.19,132.75 L93.45,146.43 L101.46,144.19 L97.27,130.81 C99.46,130.24 101.59,129.67 103.65,129.08 L107.81,142.35 L115.84,140.11 L111.59,126.46 C128.97,122.46 141.13,114.08 138.97,97.94 C137.24,84.94 130.24,80.13 120.75,76.04 Z M117.73,111.08 C114.73,124.08 93.73,118.08 86.73,116.08 L81.08,97.51 C88.08,99.51 120.89,97.35 117.73,111.08 Z M90.73,77.08 L95.73,93.51 C101.73,95.24 119.73,97.51 122.4,85.94 C125.08,73.94 106.73,71.94 90.73,77.08 Z" fill="#FFFFFF"></path>
        </g>
    </g>
</svg>
