<?xml version="1.0" encoding="UTF-8"?>
<svg width="170px" height="170px" viewBox="0 0 170 170" version="1.1" xmlns="http://www.w3.org/2000/svg" xmlns:xlink="http://www.w3.org/1999/xlink">
    <g stroke="none" stroke-width="1" fill="none" fill-rule="evenodd">
        <g transform="translate(0.000000, 0.000000)" fill-rule="nonzero">
            <circle fill="#0033AD" cx="85" cy="85" r="85"></circle>
            <g transform="translate(35.000000, 35.000000)" fill="#FFFFFF">
                <path d="M50,0 C22.4,0 0,22.4 0,50 C0,77.6 22.4,100 50,100 C77.6,100 100,77.6 100,50 C100,22.4 77.6,0 50,0 Z M14.8,42.9 C14.8,41.5 16.3,40.7 17.5,41.4 L21.9,43.9 C22.6,44.3 23,45.1 23,45.9 L23,54.1 C23,54.9 22.6,55.7 21.9,56.1 L17.5,58.6 C16.3,59.3 14.8,58.5 14.8,57.1 L14.8,42.9 Z M25.8,66.5 C25.8,65.1 27.3,64.3 28.5,65 L32.9,67.5 C33.6,67.9 34,68.7 34,69.5 L34,77.7 C34,78.5 33.6,79.3 32.9,79.7 L28.5,82.2 C27.3,82.9 25.8,82.1 25.8,80.7 L25.8,66.5 Z M25.8,19.3 C25.8,17.9 27.3,17.1 28.5,17.8 L32.9,20.3 C33.6,20.7 34,21.5 34,22.3 L34,30.5 C34,31.3 33.6,32.1 32.9,32.5 L28.5,35 C27.3,35.7 25.8,34.9 25.8,33.5 L25.8,19.3 Z M47.8,89.3 C47.8,87.9 49.3,87.1 50.5,87.8 L54.9,90.3 C55.6,90.7 56,91.5 56,92.3 L56,92.7 C56,93.5 55.6,94.3 54.9,94.7 L50.5,97.2 C49.3,97.9 47.8,97.1 47.8,95.7 L47.8,89.3 Z M47.8,66.5 C47.8,65.1 49.3,64.3 50.5,65 L54.9,67.5 C55.6,67.9 56,68.7 56,69.5 L56,77.7 C56,78.5 55.6,79.3 54.9,79.7 L50.5,82.2 C49.3,82.9 47.8,82.1 47.8,80.7 L47.8,66.5 Z M47.8,42.9 C47.8,41.5 49.3,40.7 50.5,41.4 L54.9,43.9 C55.6,44.3 56,45.1 56,45.9 L56,54.1 C56,54.9 55.6,55.7 54.9,56.1 L50.5,58.6 C49.3,59.3 47.8,58.5 47.8,57.1 L47.8,42.9 Z M47.8,19.3 C47.8,17.9 49.3,17.1 50.5,17.8 L54.9,20.3 C55.6,20.7 56,21.5 56,22.3 L56,30.5 C56,31.3 55.6,32.1 54.9,32.5 L50.5,35 C49.3,35.7 47.8,34.9 47.8,33.5 L47.8,19.3 Z M47.8,4.3 C47.8,2.9 49.3,2.1 50.5,2.8 L54.9,5.3 C55.6,5.7 56,6.5 56,7.3 L56,7.7 C56,8.5 55.6,9.3 54.9,9.7 L50.5,12.2 C49.3,12.9 47.8,12.1 47.8,10.7 L47.8,4.3 Z M69.8,66.5 C69.8,65.1 71.3,64.3 72.5,65 L76.9,67.5 C77.6,67.9 78,68.7 78,69.5 L78,77.7 C78,78.5 77.6,79.3 76.9,79.7 L72.5,82.2 C71.3,82.9 69.8,82.1 69.8,80.7 L69.8,66.5 Z M69.8,19.3 C69.8,17.9 71.3,17.1 72.5,17.8 L76.9,20.3 C77.6,20.7 78,21.5 78,22.3 L78,30.5 C78,31.3 77.6,32.1 76.9,32.5 L72.5,35 C71.3,35.7 69.8,34.9 69.8,33.5 L69.8,19.3 Z M80.8,42.9 C80.8,41.5 82.3,40.7 83.5,41.4 L87.9,43.9 C88.6,44.3 89,45.1 89,45.9 L89,54.1 C89,54.9 88.6,55.7 87.9,56.1 L83.5,58.6 C82.3,59.3 80.8,58.5 80.8,57.1 L80.8,42.9 Z"></path>
            </g>
        </g>
    </g>
</svg>
