<?xml version="1.0" encoding="UTF-8"?>
<svg width="170px" height="170px" viewBox="0 0 170 170" version="1.1" xmlns="http://www.w3.org/2000/svg" xmlns:xlink="http://www.w3.org/1999/xlink">
    <g stroke="none" stroke-width="1" fill="none" fill-rule="evenodd">
        <g transform="translate(0.000000, 0.000000)" fill-rule="nonzero">
            <circle fill="#000000" cx="85" cy="85" r="85"></circle>
            <g transform="translate(30.000000, 60.000000)" fill="#00FFA3">
                <path d="M17.7,10.5 L100.8,10.5 C102.7,10.5 103.6,10.9 104.5,11.8 C105.4,12.7 105.8,13.6 105.8,15.5 C105.8,17.4 105.4,18.3 104.5,19.2 C103.6,20.1 102.7,20.5 100.8,20.5 L17.7,20.5 C15.8,20.5 14.9,20.1 14,19.2 C13.1,18.3 12.7,17.4 12.7,15.5 C12.7,13.6 13.1,12.7 14,11.8 C14.9,10.9 15.8,10.5 17.7,10.5 Z"></path>
                <path d="M17.7,30.5 L100.8,30.5 C102.7,30.5 103.6,30.9 104.5,31.8 C105.4,32.7 105.8,33.6 105.8,35.5 C105.8,37.4 105.4,38.3 104.5,39.2 C103.6,40.1 102.7,40.5 100.8,40.5 L17.7,40.5 C15.8,40.5 14.9,40.1 14,39.2 C13.1,38.3 12.7,37.4 12.7,35.5 C12.7,33.6 13.1,32.7 14,31.8 C14.9,30.9 15.8,30.5 17.7,30.5 Z"></path>
                <path d="M17.7,-9.5 L100.8,-9.5 C102.7,-9.5 103.6,-9.1 104.5,-8.2 C105.4,-7.3 105.8,-6.4 105.8,-4.5 C105.8,-2.6 105.4,-1.7 104.5,-0.8 C103.6,0.1 102.7,0.5 100.8,0.5 L17.7,0.5 C15.8,0.5 14.9,0.1 14,-0.8 C13.1,-1.7 12.7,-2.6 12.7,-4.5 C12.7,-6.4 13.1,-7.3 14,-8.2 C14.9,-9.1 15.8,-9.5 17.7,-9.5 Z"></path>
            </g>
        </g>
    </g>
</svg>
